# xmcd CD database file
#
# Track frame offsets:
#	150
#	11195
#	25562
#	37577
#	52962
#	66675
#	80372
#	92072
#	104285
#	117650
#	128620
#	141382
#	161035
#	176035
#	188677
#	205560
#	218285
#	233382
#	253730
#	266567
#
# Disc length: 3836 seconds
#
# Revision: 4
# Processed by: cddbd v1.5.2PL0 Copyright (c) Steve Scherf et al.
# Submitted via: CDex 1.50
#
DISCID=090efa14
DTITLE=Conway Twitty - 20 Greatest Hits
DYEAR=1987
DGENRE=Country
TTITLE0=Hello Darlin'
TTITLE1=Fifteen Years Ago
TTITLE2=I Can't See Me Without You
TTITLE3=(Lost Her Love) On Our Last Date
TTITLE4=Baby's Gone
TTITLE5=You've Never Been This Far Before
TTITLE6=I'm Not Through Loving You Yet
TTITLE7=(Lying Here With) Linda On My Mind
TTITLE8=There's A Honky-tonk Angel (Who'll Take Me Back In)
TTITLE9=I Can't Believe She Gives It All To Me
TTITLE10=I See The Want-to In Your Eyes
TTITLE11=Don't Cry Joni
TTITLE12=Georgia Keeps Pulling On My Ring
TTITLE13=I've Already Loved You In My Mind
TTITLE14=Don't Take It Away
TTITLE15=I May Never Get To Heaven
TTITLE16=I'd Love To Lay You Down
TTITLE17=Rest Your Love On Me
TTITLE18=Tight Fittin' Jeans
TTITLE19=Red Neckin' Love Makin' Night
EXTD=YEAR: 1987
EXTT0=
EXTT1=
EXTT2=
EXTT3=
EXTT4=
EXTT5=
EXTT6=
EXTT7=
EXTT8=
EXTT9=
EXTT10=
EXTT11=
EXTT12=
EXTT13=
EXTT14=
EXTT15=
EXTT16=
EXTT17=
EXTT18=
EXTT19=
PLAYORDER=
